<svg width="25" height="25" viewBox="0 0 25 25" fill="none" xmlns="http://www.w3.org/2000/svg">
<path d="M11.25 13.1885L10.0336 11.972C9.54829 11.4868 8.75171 11.4868 8.26645 11.972C7.78118 12.4573 7.78118 13.2539 8.26645 13.7391L11.6164 17.0891C12.1017 17.5744 12.8983 17.5744 13.3836 17.0891L16.7336 13.7391C17.2188 13.2539 17.2188 12.4573 16.7336 11.972C16.4848 11.7233 16.1655 11.6056 15.85 11.6056C15.5345 11.6056 15.2152 11.7233 14.9664 11.972L13.75 13.1885V10.4556H17.3C18.7946 10.4556 19.9577 10.9205 20.745 11.7089C21.5321 12.4971 21.9947 13.6598 21.99 15.154V15.1556V17.7556C21.99 19.2501 21.5251 20.4134 20.7364 21.202C19.9478 21.9906 18.7846 22.4556 17.29 22.4556H7.7C6.20546 22.4556 5.04235 21.9907 4.2538 21.201C3.46518 20.4113 3 19.2455 3 17.7456V15.1556C3 13.661 3.46492 12.4977 4.25355 11.7091C5.04218 10.9205 6.20545 10.4556 7.7 10.4556H11.25V13.1885Z" fill="#FFA928" stroke="#FFA928"/>
<path d="M12.5 3.45557C12.6339 3.45557 12.75 3.57171 12.75 3.70557V9.45557H12.25V3.70557C12.25 3.57171 12.3661 3.45557 12.5 3.45557Z" fill="#FFA928" stroke="#FFA928"/>
</svg>
