<svg width="34" height="34" viewBox="0 0 34 34" fill="none" xmlns="http://www.w3.org/2000/svg">
<path d="M18.4166 6.006C18.831 5.92366 19.3802 6.17069 19.3576 6.65346C19.3603 13.5524 19.3609 20.4513 19.3576 27.3503C19.3769 27.7115 19.0369 27.9732 18.7022 27.9984C18.3004 28.0655 17.7758 27.8251 17.7898 27.3622C17.7825 20.4766 17.7884 13.5909 17.7871 6.70592C17.7439 6.3367 18.066 6.03588 18.4166 6.006Z" fill="#FFA928"/>
<path d="M8.85492 8.86169C9.17102 8.77736 9.55285 8.82982 9.78063 9.0815C9.96391 9.28536 9.91477 9.57954 9.92274 9.83056C9.92008 14.7001 9.92207 19.5697 9.92207 24.4393C9.92871 24.6398 9.87824 24.8576 9.71156 24.9858C9.38617 25.2435 8.87617 25.2421 8.55344 24.9818C8.39008 24.8523 8.3416 24.6372 8.34824 24.4386C8.3509 19.4568 8.34625 14.475 8.35024 9.49322C8.32965 9.18841 8.56871 8.9281 8.85492 8.86169Z" fill="#FFA928"/>
<path d="M21.4077 8.87137C21.7344 8.77243 22.1421 8.82422 22.3739 9.09516C22.5465 9.29969 22.4974 9.58391 22.506 9.83028C22.5034 14.7012 22.5053 19.5721 22.5053 24.4423C22.5113 24.6342 22.4648 24.8407 22.3121 24.9696C21.9834 25.2465 21.4462 25.2458 21.1201 24.9656C20.97 24.8368 20.9255 24.6329 20.9322 24.443C20.9328 19.6372 20.9322 14.8313 20.9322 10.0262C20.9362 9.79176 20.9149 9.55602 20.9521 9.32426C20.9973 9.09848 21.1958 8.93579 21.4077 8.87137Z" fill="#FFA928"/>
<path d="M15.0991 11.3935C15.4165 11.2919 15.8063 11.3331 16.05 11.5761C16.1875 11.7076 16.2154 11.9048 16.2134 12.0861C16.2121 15.3626 16.2121 18.6398 16.2134 21.9162C16.22 22.1141 16.1736 22.3286 16.0122 22.4594C15.6901 22.7231 15.1781 22.7264 14.8514 22.4694C14.6827 22.3406 14.6309 22.1214 14.6396 21.9196C14.6416 18.6185 14.6376 15.3168 14.6409 12.0151C14.6216 11.7289 14.8302 11.4719 15.0991 11.3935Z" fill="#FFA928"/>
<path d="M5.60135 11.5895C5.92409 11.4587 6.33514 11.4886 6.59877 11.731C6.75549 11.8691 6.78338 12.0876 6.77873 12.2848C6.77608 15.4524 6.7794 18.6206 6.77741 21.7882C6.78604 21.996 6.70303 22.2125 6.52506 22.3301C6.17311 22.5658 5.63389 22.5446 5.34104 22.2225C5.16772 22.0279 5.20956 21.751 5.20358 21.5119C5.20823 18.3942 5.20026 15.2757 5.20756 12.158C5.19959 11.9063 5.37092 11.6785 5.60135 11.5895Z" fill="#FFA928"/>
<path d="M27.6472 11.578C27.9833 11.4545 28.4162 11.5003 28.6619 11.7806C28.8147 11.9545 28.7941 12.2003 28.7967 12.4154C28.7927 15.5365 28.7961 18.6576 28.7947 21.778C28.8167 22.0516 28.652 22.3186 28.3923 22.4115C27.9527 22.6134 27.2302 22.4162 27.2262 21.8517C27.2176 18.639 27.2242 15.4256 27.2229 12.2129C27.1983 11.932 27.3823 11.6663 27.6472 11.578Z" fill="#FFA928"/>
<path d="M2.47933 13.575C2.9216 13.3831 3.63414 13.5916 3.62816 14.1554C3.63547 16.0121 3.6275 17.8695 3.63215 19.7269C3.63547 19.9168 3.6089 20.1266 3.46148 20.2634C3.15867 20.5476 2.65199 20.5629 2.31265 20.3351C2.13336 20.2183 2.04969 20.0024 2.05898 19.7939C2.05765 17.9332 2.05832 16.0719 2.05898 14.2112C2.03375 13.9309 2.21504 13.6646 2.47933 13.575Z" fill="#FFA928"/>
<path d="M24.52 13.5683C24.8427 13.4574 25.2451 13.4992 25.4922 13.7509C25.6316 13.8877 25.6515 14.0916 25.6502 14.2769C25.6469 16.1143 25.6509 17.9524 25.6482 19.7899C25.6575 20.0024 25.5705 20.2249 25.3846 20.3404C25.0419 20.5615 24.5352 20.5436 24.2377 20.2534C24.0764 20.1007 24.073 19.8656 24.0744 19.6597C24.081 17.821 24.0697 15.9828 24.0797 14.1447C24.0711 13.8758 24.2743 13.648 24.52 13.5683Z" fill="#FFA928"/>
<path d="M30.8283 13.561C31.1524 13.4561 31.5561 13.5026 31.7959 13.7622C31.926 13.899 31.9433 14.0956 31.9426 14.2749C31.9393 16.1157 31.9433 17.9558 31.9406 19.7966C31.9486 20.0011 31.8676 20.2136 31.6929 20.3305C31.3536 20.5629 30.8409 20.5496 30.5375 20.2621C30.3887 20.1273 30.3641 19.9168 30.3675 19.7275C30.3721 17.8688 30.3641 16.0101 30.3715 14.1514C30.3608 13.8745 30.572 13.6381 30.8283 13.561Z" fill="#FFA928"/>
<path d="M11.9133 14.1866C12.2447 14.0604 12.6716 14.101 12.922 14.3706C13.0502 14.5047 13.0701 14.6979 13.0688 14.8746C13.0661 16.3163 13.0701 17.7573 13.0668 19.199C13.0754 19.4174 12.9711 19.6386 12.7786 19.7501C12.4306 19.9533 11.9332 19.9294 11.6443 19.6326C11.5142 19.4998 11.4923 19.3065 11.4943 19.1306C11.4976 17.6869 11.4929 16.2432 11.4963 14.7995C11.4763 14.5266 11.6589 14.2756 11.9133 14.1866Z" fill="#FFA928"/>
</svg>
