<svg width="25" height="25" viewBox="0 0 25 25" fill="none" xmlns="http://www.w3.org/2000/svg">
<path d="M14.4933 4.15506L14.4936 4.15525L20.2535 8.18518C20.2535 8.1852 20.2536 8.18523 20.2536 8.18525C20.7228 8.51371 21.1671 9.05228 21.4945 9.67946C21.8219 10.3067 22.0102 10.9798 22.0102 11.5556V18.3356C22.0102 20.6094 20.1641 22.4556 17.8902 22.4556H7.11023C4.83778 22.4556 2.99023 20.6008 2.99023 18.3256V11.4256C2.99023 10.8911 3.16062 10.2521 3.45881 9.64643C3.75686 9.04108 4.1613 8.51244 4.58775 8.17982L4.58786 8.17973L9.59648 4.2708C9.5967 4.27063 9.59692 4.27047 9.59714 4.2703C10.934 3.235 13.103 3.18098 14.4933 4.15506ZM12.5002 20.2056C13.1864 20.2056 13.7502 19.6417 13.7502 18.9556V15.9556C13.7502 15.2694 13.1864 14.7056 12.5002 14.7056C11.8141 14.7056 11.2502 15.2694 11.2502 15.9556V18.9556C11.2502 19.6417 11.8141 20.2056 12.5002 20.2056Z" stroke="#999999"/>
</svg>
