<svg width="25" height="25" viewBox="0 0 25 25" fill="none" xmlns="http://www.w3.org/2000/svg">
<path d="M9.5 22.9556H15.5C20.5 22.9556 22.5 20.9556 22.5 15.9556V9.95557C22.5 4.95557 20.5 2.95557 15.5 2.95557H9.5C4.5 2.95557 2.5 4.95557 2.5 9.95557V15.9556C2.5 20.9556 4.5 22.9556 9.5 22.9556Z" stroke="#999999" stroke-width="1.5" stroke-linecap="round" stroke-linejoin="round"/>
<path d="M9.40024 17.4856C9.88024 16.9656 10.6203 17.0056 11.0403 17.5756L11.6403 18.3756C12.1103 19.0056 12.8902 19.0056 13.3602 18.3756L13.9503 17.5856C14.3703 17.0256 15.1102 16.9856 15.5902 17.4956C16.6402 18.6156 17.4902 18.2456 17.4902 16.6756V10.0456C17.4902 7.67556 16.9302 7.08557 14.7102 7.08557H10.2702C8.05023 7.08557 7.49023 7.67556 7.49023 10.0456V16.6756C7.50023 18.2256 8.36024 18.5956 9.40024 17.4856Z" stroke="#999999" stroke-width="1.5" stroke-linecap="round" stroke-linejoin="round"/>
</svg>
